<svg width="200" height="200" viewBox="0 0 200 200" fill="none" xmlns="http://www.w3.org/2000/svg">
<rect width="200" height="200" rx="40" fill="url(#paint0_linear)"/>
<path d="M100 60C77.9086 60 60 77.9086 60 100C60 122.091 77.9086 140 100 140C122.091 140 140 122.091 140 100C140 77.9086 122.091 60 100 60ZM100 125C86.1929 125 75 113.807 75 100C75 86.1929 86.1929 75 100 75C113.807 75 125 86.1929 125 100C125 113.807 113.807 125 100 125Z" fill="white" fill-opacity="0.9"/>
<path d="M100 85C91.7157 85 85 91.7157 85 100C85 108.284 91.7157 115 100 115C108.284 115 115 108.284 115 100C115 91.7157 108.284 85 100 85Z" fill="#2563EB"/>
<defs>
<linearGradient id="paint0_linear" x1="0" y1="0" x2="200" y2="200" gradientUnits="userSpaceOnUse">
<stop stop-color="#3B82F6"/>
<stop offset="1" stop-color="#1D4ED8"/>
</linearGradient>
</defs>
</svg>
